HIERARCHY
ROOT root
{
	OFFSET 0.000000 0.000000 0.000000
	CHANNELS 6 Xposition Yposition Zposition Zrotation Yrotation Xrotation
	JOINT lhip
	{
		OFFSET 0.058581 -0.082280 -0.017664
		CHANNELS 3 Zrotation Yrotation Xrotation
		JOINT lknee
		{
			OFFSET 0.043451 -0.386469 0.008037
			CHANNELS 3 Zrotation Yrotation Xrotation
			JOINT lankle
			{
				OFFSET -0.014790 -0.426874 -0.037428
				CHANNELS 3 Zrotation Yrotation Xrotation
				JOINT ltoe
				{
					OFFSET 0.041054 -0.060286 0.122042
					CHANNELS 3 Zrotation Yrotation Xrotation
					End Site
					{
						OFFSET 0.000000 0.000000 0.000000
					}
				}
			}
		}
	}
	JOINT rhip
	{
		OFFSET -0.060310 -0.090513 -0.013543
		CHANNELS 3 Zrotation Yrotation Xrotation
		JOINT rknee
		{
			OFFSET -0.043257 -0.383688 -0.004843
			CHANNELS 3 Zrotation Yrotation Xrotation
			JOINT rankle
			{
				OFFSET 0.019056 -0.420046 -0.034562
				CHANNELS 3 Zrotation Yrotation Xrotation
				JOINT rtoe
				{
					OFFSET -0.034840 -0.062106 0.130323
					CHANNELS 3 Zrotation Yrotation Xrotation
					End Site
					{
						OFFSET 0.000000 0.000000 0.000000
					}
				}
			}
		}
	}
	JOINT lowerback
	{
		OFFSET 0.004439 0.124404 -0.038385
		CHANNELS 3 Zrotation Yrotation Xrotation
		JOINT upperback
		{
			OFFSET 0.004488 0.137956 0.026820
			CHANNELS 3 Zrotation Yrotation Xrotation
			JOINT chest
			{
				OFFSET -0.002265 0.056032 0.002855
				CHANNELS 3 Zrotation Yrotation Xrotation
				JOINT lowerneck
				{
					OFFSET -0.013390 0.211636 -0.033468
					CHANNELS 3 Zrotation Yrotation Xrotation
					JOINT upperneck
					{
						OFFSET 0.010113 0.088937 0.050410
						CHANNELS 3 Zrotation Yrotation Xrotation
						End Site
						{
							OFFSET 0.000000 0.000000 0.000000
						}
					}
				}
				JOINT lclavicle
				{
					OFFSET 0.071702 0.114000 -0.018898
					CHANNELS 3 Zrotation Yrotation Xrotation
					JOINT lshoulder
					{
						OFFSET 0.122921 0.045205 -0.019046
						CHANNELS 3 Zrotation Yrotation Xrotation
						JOINT lelbow
						{
							OFFSET 0.255332 -0.015649 -0.022946
							CHANNELS 3 Zrotation Yrotation Xrotation
							JOINT lwrist
							{
								OFFSET 0.265709 0.012698 -0.007375
								CHANNELS 3 Zrotation Yrotation Xrotation
								End Site
								{
									OFFSET 0.000000 0.000000 0.000000
								}
							}
						}
					}
				}
				JOINT rclavicle
				{
					OFFSET -0.082954 0.112472 -0.023707
					CHANNELS 3 Zrotation Yrotation Xrotation
					JOINT rshoulder
					{
						OFFSET -0.113228 0.046853 -0.008472
						CHANNELS 3 Zrotation Yrotation Xrotation
						JOINT relbow
						{
							OFFSET -0.260127 -0.014369 -0.031269
							CHANNELS 3 Zrotation Yrotation Xrotation
							JOINT rwrist
							{
								OFFSET -0.269108 0.006794 -0.006027
								CHANNELS 3 Zrotation Yrotation Xrotation
								End Site
								{
									OFFSET 0.000000 0.000000 0.000000
								}
							}
						}
					}
				}
			}
		}
	}
}
MOTION
Frames: 11
Frame Time: 0.033333
0.225819 0.816198 0.991831 -92.586639 -0.856932 80.815307 9.552387 -8.278451 -39.302340 -3.842030 16.400986 85.593594 3.672884 9.769864 -26.127864 0.000000 -0.000000 0.000000 1.874439 -2.224618 1.685704 2.731399 4.700329 12.588765 1.715766 -3.506567 -10.227328 0.000000 -0.000000 0.000000 -2.114789 8.588564 15.690411 3.841991 -4.386204 7.115325 0.464943 -0.086432 6.224014 2.716399 0.385120 11.678738 4.699037 1.049829 16.485695 -21.842461 7.020952 6.227365 -66.463452 -3.209257 4.643286 11.106334 -40.434579 11.266715 -0.706908 -2.781192 -12.982258 20.934869 -3.674778 5.802008 63.514173 5.963718 7.553265 -20.681128 36.543926 -1.872821 8.713896 2.062434 -13.603272 
0.213315 0.816263 0.992456 -93.318503 -1.391587 80.666950 10.885495 -7.394410 -44.286033 -3.326518 17.474764 85.260969 4.298496 8.894149 -26.707422 0.000000 -0.000000 0.000000 1.160127 -2.974728 2.941740 2.687149 5.687795 12.188249 1.833077 -2.822979 -10.683193 0.000000 -0.000000 0.000000 -2.270368 9.598915 16.517582 3.610836 -4.370152 6.615968 0.442180 0.345245 6.078224 2.525010 0.162750 12.192339 5.155575 0.645556 16.636236 -21.685504 7.102860 6.385567 -66.545997 -2.621633 4.122061 10.758006 -40.509247 12.135887 -1.112513 -2.522712 -13.178924 20.817015 -3.122761 6.281755 63.437457 6.866332 6.991667 -20.825949 36.845010 -1.813840 8.759792 2.440919 -13.369359 
0.200962 0.816377 0.992606 -94.150325 -1.867985 80.461939 12.213906 -6.667942 -47.884815 -2.934270 18.654818 83.027053 4.094383 8.778763 -26.456599 0.000000 -0.000000 0.000000 0.585940 -3.446490 3.997770 2.581150 6.461921 12.409054 1.859093 -2.146154 -11.645100 0.000000 -0.000000 0.000000 -2.508797 10.562183 17.018111 3.418632 -4.299418 6.823954 0.451582 0.691470 5.797069 2.504794 0.464776 12.244067 5.305187 0.432967 16.728295 -21.772067 6.917239 6.545914 -66.384756 -2.080907 3.635998 10.641851 -40.224546 12.206952 -0.544278 -2.574338 -13.242892 20.809261 -2.399381 6.851831 63.183943 7.813477 6.671992 -20.832559 37.425650 -1.608481 7.807422 2.552902 -13.399973 
0.188039 0.815723 0.992012 -94.813287 -2.422663 80.431371 12.816362 -6.157174 -50.209699 -3.160266 19.183411 78.872077 4.180058 8.341296 -25.759109 0.000000 -0.000000 0.000000 0.080352 -3.351570 4.838112 2.349381 7.238982 12.530623 1.452745 -2.113382 -13.290016 0.000000 -0.000000 0.000000 -2.930091 11.200000 16.963778 3.174359 -4.216182 7.442888 0.310077 0.949493 5.875843 2.560194 1.195551 11.807187 5.091133 0.333143 16.485693 -21.749048 6.998359 6.018067 -66.155293 -1.693606 3.702518 10.966587 -39.359800 11.985511 -0.706084 -2.395749 -13.358685 20.964860 -1.901725 6.487883 63.030219 8.582855 7.166800 -21.074774 37.823147 -1.582935 9.049589 2.477507 -13.332010 
0.174189 0.814987 0.991302 -95.079093 -2.702101 80.244666 12.938751 -6.031345 -51.175368 -4.157822 18.715327 74.037349 3.464508 7.935194 -24.054885 0.000000 -0.000000 0.000000 -0.073353 -3.395600 5.771381 2.088662 7.922591 13.329293 0.930252 -2.431259 -14.259009 0.000000 -0.000000 0.000000 -3.079054 11.526491 17.357691 2.909389 -4.173568 7.359564 0.253634 1.149731 5.984608 2.640908 1.387046 11.686524 5.128087 -0.036865 16.792314 -21.881364 6.931936 5.647601 -65.855839 -1.226514 3.476004 11.268012 -38.512440 11.503677 -0.333391 -2.414441 -13.387617 20.954350 -1.486329 6.267115 63.049348 8.999994 7.406590 -20.906041 38.138553 -1.290689 8.793362 2.863142 -13.106582 
0.159316 0.814250 0.990075 -95.331864 -2.908776 79.929707 12.903547 -6.343135 -50.937055 -4.848491 17.909150 69.582609 3.649439 7.328707 -22.412642 0.000000 -0.000000 0.000000 -0.272244 -3.365193 6.906766 1.914609 8.546236 14.018256 0.624313 -2.687264 -15.589097 0.000000 -0.000000 0.000000 -3.257317 11.797037 17.390732 2.651035 -4.196781 7.993196 0.155916 1.309292 5.779103 2.592872 1.598002 11.801790 5.170829 -0.484988 16.997381 -21.812838 6.770724 5.603367 -65.780029 -1.037491 3.179913 12.001169 -37.332476 10.487337 -0.355322 -2.492835 -13.300503 20.808244 -0.921381 6.278017 63.243131 9.258577 7.660148 -20.671597 38.696783 -0.938325 9.323094 2.949256 -13.063010 
0.143351 0.812859 0.988457 -95.516836 -2.958817 79.896474 12.541870 -6.597570 -50.244195 -5.643519 16.705744 66.192033 3.525736 7.059633 -21.116992 0.000000 -0.000000 0.000000 -0.489808 -3.513998 7.814834 1.737451 8.543621 14.618332 0.353837 -2.314737 -16.966114 0.000000 -0.000000 0.000000 -3.372463 12.019199 17.236026 2.426861 -4.126183 8.246966 0.040826 1.477167 5.682947 2.788502 1.830385 12.037271 5.104799 -0.851343 17.144388 -21.870569 6.731466 5.406651 -65.579202 -0.727529 2.970775 12.614720 -36.365531 9.511912 -0.336212 -2.493443 -13.315784 20.916879 -0.737940 6.400392 63.255524 9.371259 7.705862 -20.259369 39.443875 -0.177008 8.968378 3.202192 -13.020828 
0.126544 0.811215 0.986634 -95.847294 -2.970276 80.107323 12.296248 -6.913392 -49.144669 -6.515248 15.822670 63.810806 3.787080 7.186710 -19.127911 0.000000 -0.000000 0.000000 -0.738521 -3.369631 8.629073 1.805460 8.788106 15.054652 0.055800 -2.462937 -18.022499 0.000000 -0.000000 0.000000 -3.587466 12.300995 16.665352 2.314495 -3.965918 8.492659 -0.093430 1.584301 5.705639 2.919420 2.138534 11.950596 4.897129 -1.101442 17.640713 -21.789109 6.866745 5.444632 -65.399885 -0.603100 2.755438 12.871228 -35.596395 8.803922 -0.318169 -2.215108 -13.281759 21.071982 -0.734886 6.372017 63.264159 9.320497 7.882392 -20.079232 40.042273 0.381623 9.379709 3.565169 -12.571435 
0.109388 0.809707 0.984985 -95.932656 -2.612365 80.825478 11.889771 -6.835935 -48.257044 -7.118697 14.744002 62.477648 2.066447 5.181370 -16.806344 0.000000 -0.000000 0.000000 -0.539930 -3.452019 8.864495 1.645102 8.459846 15.482294 -0.048468 -2.067191 -18.866243 0.000000 -0.000000 0.000000 -3.765174 12.403914 15.467562 2.380529 -3.939945 9.160647 -0.094767 1.743634 4.955724 2.913006 2.432085 13.292681 5.059853 -1.399955 17.607516 -22.128205 6.757922 5.994955 -65.183650 -0.254838 2.237052 13.717784 -35.407431 7.384815 -0.961584 -2.078507 -13.223676 21.236144 -0.653525 6.847962 63.093710 9.081417 7.450057 -19.611300 40.348313 1.133016 9.329453 3.362186 -12.449036 
0.091685 0.807355 0.983725 -95.970982 -2.365018 81.680658 11.302399 -6.940090 -46.900694 -7.530825 14.310656 61.265677 2.394469 5.262335 -16.024039 0.000000 -0.000000 0.000000 -0.549589 -3.310092 9.258940 1.688242 8.596467 15.445763 0.043039 -2.358391 -18.922096 0.000000 -0.000000 0.000000 -4.068410 12.394327 14.744937 2.303065 -3.742729 8.801002 -0.105614 1.846156 4.958437 3.077790 2.443786 13.372000 4.788691 -1.257570 17.700456 -22.222604 7.268041 5.914233 -64.819457 0.013269 2.093259 13.703869 -35.307390 7.174055 -0.902427 -1.806393 -13.031375 21.467358 -0.842119 7.134367 63.101885 8.951892 7.609232 -19.488949 40.269959 1.193326 9.450798 3.267943 -12.419122 
0.074262 0.804423 0.983458 -96.156744 -2.197253 82.639367 10.100101 -6.544973 -45.071960 -7.360742 13.674598 59.901581 5.833688 8.228861 -21.023437 0.000000 -0.000000 0.000000 -0.925385 -3.730687 9.551821 1.974642 9.352909 15.296885 0.495474 -2.818368 -18.233716 0.000000 -0.000000 0.000000 -4.292625 12.528068 14.376138 1.994197 -3.374423 7.911890 -0.177348 1.886609 5.551867 3.262811 1.692180 12.484947 4.924592 -1.415294 18.229779 -21.819993 7.753794 5.829621 -64.730689 -0.159539 1.942878 13.148501 -35.330367 8.029880 -0.011225 -2.120436 -13.371669 21.449543 -1.095922 6.619247 63.536014 8.394918 7.986076 -19.382858 39.938964 1.276258 9.841906 3.503275 -12.240461 
